<svg xmlns="http://www.w3.org/2000/svg" width="1200" height="630" viewBox="0 0 1200 630">
  <defs>
    <linearGradient id="bg" x1="0" y1="0" x2="1" y2="1">
      <stop offset="0" stop-color="#F7FAFF"/><stop offset="0.56" stop-color="#FFFFFF"/><stop offset="1" stop-color="#E8F3FF"/>
    </linearGradient>
    <linearGradient id="core" x1="0" y1="0" x2="1" y2="1">
      <stop offset="0" stop-color="#5CA2FF"/><stop offset="1" stop-color="#1B64DA"/>
    </linearGradient>
    <filter id="shadow" x="-30%" y="-30%" width="170%" height="170%"><feDropShadow dx="0" dy="20" stdDeviation="22" flood-color="#191F28" flood-opacity="0.15"/></filter>
    <marker id="arrow" markerWidth="10" markerHeight="10" refX="8" refY="5" orient="auto"><path d="M0,0 L10,5 L0,10 z" fill="#3182F6"/></marker>
  </defs>
  <rect width="1200" height="630" fill="url(#bg)"/>
  <circle cx="1120" cy="80" r="235" fill="#3182F6" opacity="0.10"/>
  <circle cx="30" cy="650" r="230" fill="#DFFF6A" opacity="0.24"/>
  <g font-family="NanumSquare, Noto Sans CJK KR, sans-serif">
    <rect x="70" y="58" width="190" height="44" rx="22" fill="#E8F3FF"/>
    <circle cx="98" cy="80" r="6" fill="#3182F6"/>
    <text x="118" y="87" font-size="18" font-weight="800" fill="#1B64DA">REPORT HUB</text>
    <text x="70" y="224" font-size="86" font-weight="900" letter-spacing="-5" fill="#191F28">Hermes 진짜 비서</text>
    <text x="70" y="328" font-size="104" font-weight="900" letter-spacing="-6" fill="#3182F6">만들기</text>
    <rect x="65" y="345" width="238" height="26" rx="8" fill="#DFFF6A" transform="rotate(-1.3 65 345)"/>
    <text x="70" y="432" font-size="39" font-weight="800" letter-spacing="-2" fill="#333D4B">50시간 사례 핵심</text>
  </g>
  <g transform="translate(745 105)" filter="url(#shadow)">
    <rect width="390" height="420" rx="52" fill="#FFFFFF" stroke="#E5E8EB" stroke-width="2"/>
    <g transform="translate(28 42)">
      <rect x="0" y="18" width="82" height="68" rx="22" fill="#F2F4F6" stroke="#E5E8EB"/>
      <path d="M22 42h38M22 58h28" stroke="#6B7684" stroke-width="7" stroke-linecap="round"/>
      <path d="M82 52h45" stroke="#3182F6" stroke-width="4" marker-end="url(#arrow)"/>
      <circle cx="184" cy="52" r="55" fill="url(#core)"/>
      <path d="M158 52h52M184 26v52" stroke="#FFFFFF" stroke-width="10" stroke-linecap="round"/>
      <path d="M239 52h45" stroke="#3182F6" stroke-width="4" marker-end="url(#arrow)"/>
      <rect x="302" y="4" width="58" height="48" rx="15" fill="#E8F3FF"/>
      <path d="M313 18h36v22h-36zM313 19l18 13 18-13" fill="none" stroke="#3182F6" stroke-width="4" stroke-linejoin="round"/>
      <rect x="302" y="68" width="58" height="48" rx="15" fill="#F1FFB8"/>
      <path d="M314 80h34M314 92h34M314 104h22" stroke="#587000" stroke-width="4" stroke-linecap="round"/>
    </g>
    <g transform="translate(45 190)" font-family="NanumSquare, Noto Sans CJK KR, sans-serif">
      <rect width="300" height="72" rx="22" fill="#F7F8FA" stroke="#E5E8EB"/>
      <text x="24" y="30" font-size="17" font-weight="800" fill="#191F28">읽기 → 정리 → 초안</text>
      <text x="24" y="54" font-size="14" font-weight="700" fill="#6B7684">외부 발신 전에는 멈춘다</text>
      <rect y="94" width="300" height="92" rx="26" fill="#191F28"/>
      <path d="M47 126l15 15 28-31" fill="none" stroke="#DFFF6A" stroke-width="8" stroke-linecap="round" stroke-linejoin="round"/>
      <text x="111" y="133" font-size="21" font-weight="900" fill="#FFFFFF">사용자 승인</text>
      <text x="111" y="158" font-size="13" font-weight="700" fill="#B0B8C1">SEND · DELETE · PAY</text>
    </g>
  </g>
</svg>